<svg viewBox="0 0 84.78 88.32" xmlns="http://www.w3.org/2000/svg"><g fill="#2e368f"><ellipse cx="55.01" cy="8.95" rx="8.95" ry="8.92" transform="matrix(.00383971 -.99999263 .99999263 .00383971 45.85 63.93)"/><path d="m84 44.18-15.09-19.83a11 11 0 0 0 -8.78-4.35h-10.13a11 11 0 0 0 -7.84 3.28 13.1 13.1 0 0 0 -8.79-3.41l-12.37.03a13.12 13.12 0 0 0 -11.69 7.21l-8.87 17.49a4.1 4.1 0 0 0 7.3 3.75l7.87-15.35 1.63 15.61-3.8 32.74a5.28 5.28 0 0 0 5.23 5.9 5.24 5.24 0 0 0 5.21-4.63l3.22-26.17 3.11 26.19a5.25 5.25 0 0 0 5.22 4.64 5.83 5.83 0 0 0 .59 0 3.53 3.53 0 0 0 2.2 1 3.59 3.59 0 0 0 3.71-2.51 4.09 4.09 0 0 0 .16-.74l.07-.68.07.68a5.36 5.36 0 0 0 .16.74 3.56 3.56 0 0 0 6 1.38 3.45 3.45 0 0 0 .71.09 3.72 3.72 0 0 0 3.71-3.36l2.1-22.42 2.09 22.54a3.71 3.71 0 0 0 7.4-.46l-.69-24.42h7.75l-5.4-24.39 12.4 14.48a3.73 3.73 0 0 0 4.85.29 3.81 3.81 0 0 0 .69-5.32zm-42.06-10.86h.44a5.79 5.79 0 0 1 0 11.57h-.23a.9.9 0 0 1 -.23 0 5.79 5.79 0 0 1 0-11.57zm4 52.94a1.57 1.57 0 0 1 -1.7-1.41l-1.07-11a1 1 0 0 0 -1-.92 1 1 0 0 0 -1 .92l-1.07 11a1.57 1.57 0 0 1 -1.7 1.41 1.64 1.64 0 0 1 -1.46-1.64l-.29-10.79a1 1 0 0 0 -1-1h-1.57a1.53 1.53 0 0 1 -1.22-.6 1.5 1.5 0 0 1 -.26-1.32l3.51-13.6a1 1 0 0 0 -.35-1l-13.65-11a1 1 0 0 1 .11-1.68 1 1 0 0 1 1 0l6.34 3.25a28.2 28.2 0 0 0 12.59 3.06 27.85 27.85 0 0 0 12.59-3.06l6.34-3.25a1 1 0 0 1 1 0 1 1 0 0 1 .49.88 1 1 0 0 1 -.39.8l-13.61 11a1 1 0 0 0 -.35 1l3.51 13.6a1.55 1.55 0 0 1 -.26 1.32 1.59 1.59 0 0 1 -1.22.6h-1.55a1 1 0 0 0 -1 1l-.29 10.79a1.63 1.63 0 0 1 -1.41 1.64z"/><ellipse cx="27.28" cy="8.95" rx="8.92" ry="8.95" transform="matrix(.99999263 -.00383971 .00383971 .99999263 -.03 .1)"/></g></svg>