<svg viewBox="0 0 43.9 37.5" xmlns="http://www.w3.org/2000/svg"><path d="m10.06 5.49a4.58 4.58 0 1 1 -4.57-4.58 4.58 4.58 0 0 1 4.57 4.58zm7.44 12.21-7.26-5.49a1.83 1.83 0 0 0 -1.09-.32h-7.89a1.26 1.26 0 0 0 -1.26 1.26v10.29a1.27 1.27 0 0 0 1.26 1.25h.57v11.55a1.26 1.26 0 0 0 1.26 1.26h4.79a1.27 1.27 0 0 0 1.27-1.27v-11.54h.56a1.25 1.25 0 0 0 1.29-1.26v-6.05l4.39 3.29a1.83 1.83 0 0 0 2.56-.36 1.76 1.76 0 0 0 .29-.56 1.81 1.81 0 0 0 -.74-2.05zm20.91-7.64a4.58 4.58 0 1 0 -4.57-4.57 4.57 4.57 0 0 0 4.57 4.57zm4.22 1.83h-7.88a1.8 1.8 0 0 0 -1.09.36l-7.26 5.48a1.84 1.84 0 0 0 1.6 3.27 1.61 1.61 0 0 0 .55-.29l4.38-3.32v6.05a1.26 1.26 0 0 0 1.26 1.26h.57v11.53a1.27 1.27 0 0 0 1.24 1.27h4.8a1.28 1.28 0 0 0 1.26-1.26v-11.55h.57a1.27 1.27 0 0 0 1.26-1.25v-10.29a1.26 1.26 0 0 0 -1.27-1.26zm-15.15-8.57-4.42-3.32v2.21h-6.65v2.22h6.65v2.21zm0 6.64h-6.64v-2.21l-4.43 3.32 4.43 3.32v-2.22h6.64z" fill="#759fd4"/></svg>