<svg viewBox="0 0 48 50" xmlns="http://www.w3.org/2000/svg"><g fill="#759fd4"><ellipse cx="31.14" cy="5.07" rx="5.07" ry="5.05" transform="matrix(.00383971 -.99999263 .99999263 .00383971 25.95 36.19)"/><path d="m47.56 25-8.56-11.21a6.25 6.25 0 0 0 -5-2.46h-5.69a6.23 6.23 0 0 0 -4.44 1.86 7.4 7.4 0 0 0 -5-1.93h-7a7.45 7.45 0 0 0 -6.62 4.07l-5 9.91a2.32 2.32 0 0 0 4.13 2.12l4.46-8.68.92 8.84-2.15 18.54a3 3 0 0 0 3 3.34 3 3 0 0 0 2.95-2.62l1.79-14.78 1.76 14.82a3 3 0 0 0 2.95 2.63h.33a2 2 0 0 0 1.25.59 2 2 0 0 0 2.1-1.42 2.1 2.1 0 0 0 .09-.42v-.38.38a2.59 2.59 0 0 0 .09.42 2 2 0 0 0 3.41.78 1.83 1.83 0 0 0 .4 0 2.1 2.1 0 0 0 2.1-1.9l1.27-12.69 1.15 12.71a2.1 2.1 0 0 0 4.19-.26l-.39-13.82h4.39l-3-13.78 7 8.2a2.12 2.12 0 0 0 2.75.16 2.18 2.18 0 0 0 .37-3.02zm-23.82-6.14h.26a3.28 3.28 0 0 1 0 6.55h-.26a3.28 3.28 0 0 1 0-6.55zm2.27 30a.89.89 0 0 1 -1-.8l-.61-6.2a.58.58 0 0 0 -.57-.52.57.57 0 0 0 -.57.52l-.57 6.14a.89.89 0 0 1 -1 .8.93.93 0 0 1 -.83-.93l-.16-6.1a.57.57 0 0 0 -.57-.56h-.88a.86.86 0 0 1 -.69-.34.85.85 0 0 1 -.15-.75l2-7.7a.56.56 0 0 0 -.2-.59l-7.72-6.23a.58.58 0 0 1 -.22-.45.59.59 0 0 1 .28-.5.56.56 0 0 1 .57 0l3.59 1.84a15.88 15.88 0 0 0 7.12 1.73 15.79 15.79 0 0 0 7.17-1.72l3.59-1.84a.59.59 0 0 1 .57 0 .58.58 0 0 1 .28.5.56.56 0 0 1 -.22.45l-7.72 6.25a.58.58 0 0 0 -.2.59l2 7.7a.87.87 0 0 1 -.15.75.89.89 0 0 1 -.69.34h-.88a.57.57 0 0 0 -.57.56l-.16 6.1a.93.93 0 0 1 -.85.93z"/><ellipse cx="15.45" cy="5.07" rx="5.05" ry="5.07" transform="matrix(.99999263 -.00383971 .00383971 .99999263 -.02 .06)"/></g></svg>