<svg viewBox="0 0 43.39 43.39" xmlns="http://www.w3.org/2000/svg"><path d="m43.39 15.08a2.38 2.38 0 0 1 -2.39 2.38 1.06 1.06 0 0 0 -1 1.06v21.69h-4.5v-4.76a5.91 5.91 0 0 0 -6-5.82h-1.14a6.33 6.33 0 0 0 -1.43.16v-1.22a2.13 2.13 0 0 1 2.12-2.12 1.06 1.06 0 1 0 0-2.11 4.25 4.25 0 0 0 -4.24 4.23v1.22a6.25 6.25 0 0 0 -1.42-.16h-1.12a6.54 6.54 0 0 0 -2.27.42v-13.44c0-.05 0-.05-.05-.1l-1.7-3.81h22.75a2.38 2.38 0 0 1 2.39 2.38zm-29.1-15.08h-10.59v3.17h10.59zm-1.75 5.29h-7.09l-5.34 11.64-.11.21v3.39l1.85-.85a8.78 8.78 0 0 1 7.62 0 6.23 6.23 0 0 0 2 .58 6.51 6.51 0 0 0 3.86-.58l.11-.05 2.56-1.27v-1.22l-.16-.21zm3.6 16.3 1.85-.9v10.79a5.64 5.64 0 0 0 -1.59 3.92v4.76h-16.4v-17.25l2.65-1.27.1-.05a6.46 6.46 0 0 1 3.86-.59 6.44 6.44 0 0 1 2 .59 8.67 8.67 0 0 0 7.53 0zm-2.38 8.57a4.77 4.77 0 1 0 -4.76 4.76 4.74 4.74 0 0 0 4.76-4.76zm15.71 1.59h-1.11a4.5 4.5 0 0 0 -1.43.26v1.32a1.06 1.06 0 0 1 -2.12 0v-1.33a4 4 0 0 0 -1.42-.26h-1.12a3.79 3.79 0 0 0 -3.86 3.7v4.23a3.79 3.79 0 0 0 3.86 3.71h1.12a3.62 3.62 0 0 0 1.95-.53.85.85 0 0 1 .53-.11 1.43 1.43 0 0 1 .53.11 4.25 4.25 0 0 0 2 .53h1.11a3.78 3.78 0 0 0 3.86-3.71v-4.22a3.78 3.78 0 0 0 -3.9-3.7zm-20.47-4.24a2.65 2.65 0 1 0 2.65 2.65 2.62 2.62 0 0 0 -2.65-2.65z" fill="#759fd4"/></svg>