<svg viewBox="0 0 37.49 37.55" xmlns="http://www.w3.org/2000/svg"><g fill="#759fd4"><path d="m23.3 9.17a5.39 5.39 0 0 0 -5.36 5.36c0 1 2.36 1.91 5.36 1.91s5.36-.81 5.36-1.91a5.31 5.31 0 0 0 -5.36-5.36z"/><path d="m23.3 8a2.08 2.08 0 1 0 -2.08-2.08 2.11 2.11 0 0 0 2.08 2.08z"/><path d="m33.8 0h-20.94a3.71 3.71 0 0 0 -3.69 3.69v12.92a3.71 3.71 0 0 0 3.69 3.69h.4v3.87a.57.57 0 0 0 1 .4l4.09-4.27h15.45a3.71 3.71 0 0 0 3.69-3.69v-12.92a3.71 3.71 0 0 0 -3.69-3.69zm-10.5 17.59c-3.23 0-6.52-.92-6.52-3.06a6.49 6.49 0 0 1 4.44-6.17 3.09 3.09 0 0 1 -1.09-2.42 3.23 3.23 0 0 1 6.46 0 3.27 3.27 0 0 1 -1.1 2.42 6.56 6.56 0 0 1 4.44 6.17c-.06 2.14-3.34 3.06-6.63 3.06z"/><path d="m20 31-6.46-1.44a.47.47 0 0 0 -.52.17 4.38 4.38 0 0 0 -.86 1.16 9.85 9.85 0 0 1 -3.29-2.25 10.49 10.49 0 0 1 -2.25-3.29 3.92 3.92 0 0 0 1.1-.87 1 1 0 0 0 .17-.52l-1.44-6.4a.6.6 0 0 0 -.35-.46 4.5 4.5 0 0 0 -6.1 4.24 16.23 16.23 0 0 0 16.21 16.21 4.56 4.56 0 0 0 4.55-4.55c0-.59-.17-1.86-.76-2z"/></g></svg>