<svg viewBox="0 0 76.36 50.7" xmlns="http://www.w3.org/2000/svg"><path d="m76.32 24.76h-76.28v-.13h76.28z" fill="#6d6e70"/><path d="m76.36 24.8h-76.36v-.21h76.36zm-76.27-.08h76.19z" fill="#6d6e70"/><path d="m76.32 41.57h-76.28v-.13h76.28z" fill="#6d6e70"/><path d="m76.36 41.62h-76.36v-.22h76.36zm-76.27-.09h76.19v-.05h-76.19z" fill="#6d6e70"/><path d="m24.41 15.18v-2.67h-6.81l3.74 2.92-5.78 4.18h13.93a19.32 19.32 0 0 1 -2.66-.75c-2.11-.86-2.42-3.68-2.42-3.68z" fill="#006fa3"/><path d="m25.16 14.57s.32 2.8 2.43 3.68c1.17.49 3.29.84 5.32 1.41l1.51-.06a35.71 35.71 0 0 0 -4.81-2.4c-2.11-.88-2.42-3.68-2.42-3.68v-7.84a14.78 14.78 0 0 1 -2-1.63v10.52z" fill="#006fa3"/><path d="m27.89 12.91s.31 2.8 2.42 3.68a23.7 23.7 0 0 1 5.6 3h.86a13.9 13.9 0 0 0 -4-4.08c-3-1.87-2.87-7.36-2.87-7.36v-4.26a9.53 9.53 0 0 1 -2-2.31v11.33z" fill="#006fa3"/><path d="m30.9.05v-.05s-.04 0 0 .05z" fill="#006fa3"/><path d="m30.9 7.6s-.52 5.17 2.42 7.13a19 19 0 0 1 4.79 4.8l-1.11-11.22a13.08 13.08 0 0 0 -3.64-5.81 30.44 30.44 0 0 1 -2.46-2.45z" fill="#006fa3"/><path d="m49.53 18.86a19.32 19.32 0 0 1 -2.66.75h13.94l-5.81-4.18 3.74-2.92h-6.74v2.67s-.36 2.82-2.47 3.68z" fill="#006fa3"/><path d="m49.17 13.52s-.31 2.8-2.42 3.68a36.34 36.34 0 0 0 -4.75 2.38l1.56.06c2-.56 4.09-.91 5.24-1.39 2.11-.88 2.43-3.68 2.43-3.68v-10.52a14.78 14.78 0 0 1 -2 1.63z" fill="#006fa3"/><path d="m46.44 8.1s.12 5.49-2.86 7.36a13.54 13.54 0 0 0 -4 4.08h.86a23.58 23.58 0 0 1 5.59-3c2.11-.88 2.42-3.68 2.42-3.68v-11.28a9.53 9.53 0 0 1 -2 2.31z" fill="#006fa3"/><path d="m45.46 0v.05c.04-.05 0-.05 0-.05z" fill="#006fa3"/><path d="m38.25 19.53a19.15 19.15 0 0 1 4.75-4.8c2.94-2 2.42-7.13 2.42-7.13v-7.55a30.44 30.44 0 0 1 -2.42 2.45 13.08 13.08 0 0 0 -3.63 5.81l-1.13 11.22z" fill="#006fa3"/><g fill="#6d6e70"><path d="m11.9 37.56a15.9 15.9 0 0 0 -3.9 0v-.48c1 0 1.27-.5 1.27-1.45v-5.7h-.59c-1.45 0-1.94.34-1.94 1.2h-.41c0-.85.25-1.19.25-1.91 0-.12 0-.25 0-.34.4 0 .51.5 1.49.5h3.86c1 0 1.09-.5 1.49-.5v.34c0 .72.23 1.06.25 1.91h-.41c0-.86-.5-1.2-1.94-1.2h-.59v5.7c0 .95.23 1.45 1.27 1.45z"/><path d="m19.7 29.25c.37 0 1.32.11 1.86.11s1.49-.11 1.86-.11v.48c-.88 0-1.11.45-1.11 1.43v2.68c0 2.16 1.13 3.16 2.62 3.16 1.68 0 2.53-1.25 2.53-3.43v-1.94c0-1.54-.43-1.9-1.46-1.9v-.48c.33 0 1.15.11 1.62.11s1.3-.11 1.61-.11v.48c-.84 0-1.22.36-1.22 1.9v1.66c0 2.47-.76 4.41-3.65 4.41-2.09 0-3.41-1.3-3.41-3.64v-2.9c0-1.12-.23-1.43-1.25-1.43z"/><path d="m36.79 31.18c0-1.14-.24-1.39-1-1.45v-.48c.34 0 1.2.11 1.7.11s1.36-.11 1.71-.11v.48c-.79.06-1 .31-1 1.45v4.47c0 1.11.5 1.25 1.5 1.25 2.23 0 2.48-.86 2.8-1.79h.4c0 .54-.47 1.68-.47 2.59a3 3 0 0 0 -1-.22c-.41 0-1 0-2.13 0-1.52 0-2.34 0-2.8.06s-.56.06-.64.06v-.48c.78-.06 1-.32 1-1.45z"/><path d="m54 31.22c0-1.11-.71-1.63-1.89-1.63a1.32 1.32 0 0 0 -1.45 1.2c0 1.82 4.22 1.75 4.22 4.23a2.75 2.75 0 0 1 -3.07 2.68 4.81 4.81 0 0 1 -1-.11 4 4 0 0 0 -.82-.1 3.53 3.53 0 0 0 -.88.15 7.52 7.52 0 0 0 .36-2.56h.41v.19a1.82 1.82 0 0 0 2 1.88c.87 0 1.85-.48 1.85-1.36 0-2.09-4.13-1.75-4.13-4.41a2.24 2.24 0 0 1 2.5-2.27 4.19 4.19 0 0 1 1.13.12 2.59 2.59 0 0 0 .57.11 1.31 1.31 0 0 0 .48-.09.88.88 0 0 1 .37-.09 12.36 12.36 0 0 0 -.24 2.06z"/><path d="m60.87 37.08c.63 0 1.13-.61 1.45-1.38.14-.31 2.43-5.2 2.43-5.63 0-.23-.13-.34-.4-.34v-.48c1.4 0 1.28-.41 2.18-.41a1 1 0 0 0 -.14.54 2.9 2.9 0 0 0 .2 1l2.17 5.62c.33.86.78 1.12 1.27 1.12v.48a13.23 13.23 0 0 0 -1.81-.12 13.47 13.47 0 0 0 -1.83.12v-.48c.78 0 1-.27 1-.67s-.15-.62-.75-2.14c-.44-.05-1.22-.07-2-.07a6.27 6.27 0 0 0 -1.06.07c-.52 1.32-.75 1.56-.75 2.07 0 .36.35.74 1.09.74v.48a10.14 10.14 0 0 0 -3.11 0zm4.36-6.72-1.33 3.25h1.22s.87 0 1.31 0z"/><path d="m14.45 46.89h1a1 1 0 0 1 1.11 1.11 1 1 0 0 1 -1.08 1.09h-.57v1.58h-.46zm.46 1.78h.55c.34 0 .62-.23.62-.73a.59.59 0 0 0 -.65-.67h-.52z"/><path d="m18 46.89h.46v2.63c0 .55.18.81.63.81s.64-.29.64-.81v-2.63h.47v2.63a1 1 0 0 1 -1.11 1.18c-.75 0-1.09-.41-1.09-1.18z"/><path d="m21.79 46.89h1.15a.87.87 0 0 1 1 1 .81.81 0 0 1 -.55.78.86.86 0 0 1 .67.92c0 .76-.43 1.07-1.21 1.07h-1zm.46 1.61h.53a.57.57 0 0 0 .64-.62c0-.39-.2-.61-.65-.61h-.52zm0 1.75h.63a.62.62 0 0 0 .66-.69.66.66 0 0 0 -.74-.71h-.55z"/><path d="m25.56 46.89h.44v3.33h1.51v.41h-2z"/><path d="m28.94 46.89h.46v3.74h-.46z"/><path d="m33.35 49.35c0 .7-.32 1.35-1.14 1.35-1.06 0-1.2-1-1.2-1.94s.17-1.94 1.2-1.94c.77 0 1.09.43 1.11 1.16h-.48c0-.42-.15-.79-.63-.79-.64 0-.72.71-.72 1.57s.08 1.57.72 1.57.64-.53.66-1z"/><path d="m38.73 47.86c0-.39-.14-.67-.58-.67a.56.56 0 0 0 -.62.61c0 1.06 1.76.43 1.76 1.79a1 1 0 0 1 -1.16 1.11c-.87 0-1.13-.45-1.13-1.24h.46c0 .42 0 .87.7.87a.63.63 0 0 0 .65-.66c0-1.06-1.76-.45-1.76-1.82a1 1 0 0 1 1.09-1 .93.93 0 0 1 1 1z"/><path d="m43.1 49.35c0 .7-.32 1.35-1.14 1.35-1.06 0-1.2-1-1.2-1.94s.17-1.94 1.2-1.94c.77 0 1.09.43 1.11 1.16h-.48c0-.42-.15-.79-.63-.79-.63 0-.72.71-.72 1.57s.09 1.57.72 1.57.64-.53.66-1z"/><path d="m46.79 50.63h-.46v-1.8h-1.28v1.8h-.47v-3.74h.47v1.53h1.28v-1.53h.46z"/><path d="m50.81 48.76c0 .94-.18 1.94-1.21 1.94s-1.2-1-1.2-1.94.17-1.94 1.2-1.94 1.21 1 1.21 1.94zm-1.93 0c0 .87.08 1.57.72 1.57s.73-.7.73-1.57-.09-1.57-.73-1.57-.72.71-.72 1.57z"/><path d="m54.77 48.76c0 .94-.17 1.94-1.2 1.94s-1.21-1-1.21-1.94.17-1.94 1.21-1.94 1.2 1 1.2 1.94zm-1.93 0c0 .87.09 1.57.73 1.57s.72-.7.72-1.57-.08-1.57-.72-1.57-.73.71-.73 1.57z"/><path d="m56.38 46.89h.46v3.33h1.52v.41h-2z"/><path d="m61.35 47.86c0-.39-.15-.67-.59-.67a.55.55 0 0 0 -.61.61c0 1.06 1.76.43 1.76 1.79a1 1 0 0 1 -1.16 1.11c-.88 0-1.13-.45-1.13-1.24h.46c0 .42 0 .87.7.87a.63.63 0 0 0 .65-.66c0-1.06-1.77-.45-1.77-1.82a1 1 0 0 1 1.1-1 .93.93 0 0 1 1.05 1z"/></g></svg>