<?xml version="1.0" encoding="utf-8"?>
<!-- Generator: Adobe Illustrator 24.1.0, SVG Export Plug-In . SVG Version: 6.00 Build 0)  -->
<svg version="1.1" id="Layer_1" xmlns="http://www.w3.org/2000/svg" xmlns:xlink="http://www.w3.org/1999/xlink" x="0px" y="0px"
	 viewBox="0 0 76.4 50.7" style="enable-background:new 0 0 76.4 50.7;" xml:space="preserve">
<style type="text/css">
	.st0{fill:#FFFFFF;}
</style>
<path class="st0" d="M76.3,24.8H0v-0.1h76.3V24.8z"/>
<path class="st0" d="M76.4,24.8H0v-0.2h76.4V24.8z M0.1,24.7h76.2H0.1z"/>
<path class="st0" d="M76.3,41.6H0v-0.1h76.3V41.6z"/>
<path class="st0" d="M76.4,41.6H0v-0.2h76.4V41.6z M0.1,41.5h76.2v0L0.1,41.5L0.1,41.5z"/>
<path class="st0" d="M24.4,15.2v-2.7h-6.8l3.7,2.9l-5.8,4.2h13.9c-0.9-0.2-1.8-0.4-2.7-0.8C24.7,18,24.4,15.2,24.4,15.2z"/>
<path class="st0" d="M25.2,14.6c0,0,0.3,2.8,2.4,3.7c1.2,0.5,3.3,0.8,5.3,1.4l1.5-0.1c-1.5-0.9-3.1-1.7-4.8-2.4
	c-2.1-0.9-2.4-3.7-2.4-3.7V5.7c-0.7-0.5-1.4-1-2-1.6L25.2,14.6L25.2,14.6z"/>
<path class="st0" d="M27.9,12.9c0,0,0.3,2.8,2.4,3.7c2,0.7,3.9,1.8,5.6,3h0.9c-1-1.6-2.4-3-4-4.1c-3-1.9-2.9-7.4-2.9-7.4V3.9
	c-0.8-0.7-1.5-1.4-2-2.3L27.9,12.9L27.9,12.9z"/>
<path class="st0" d="M30.9,0.1L30.9,0.1C30.9,0,30.9,0,30.9,0.1z"/>
<path class="st0" d="M30.9,7.6c0,0-0.5,5.2,2.4,7.1c1.9,1.3,3.5,2.9,4.8,4.8L37,8.3c-0.7-2.2-1.9-4.2-3.6-5.8
	c-0.9-0.8-1.7-1.6-2.5-2.5L30.9,7.6z"/>
<path class="st0" d="M49.5,18.9c-0.9,0.3-1.8,0.6-2.7,0.8h13.9L55,15.4l3.7-2.9H52v2.7C52,15.2,51.6,18,49.5,18.9z"/>
<path class="st0" d="M49.2,13.5c0,0-0.3,2.8-2.4,3.7c-1.6,0.7-3.2,1.5-4.8,2.4l1.6,0.1c2-0.6,4.1-0.9,5.2-1.4
	c2.1-0.9,2.4-3.7,2.4-3.7V4.1c-0.6,0.6-1.3,1.1-2,1.6L49.2,13.5z"/>
<path class="st0" d="M46.4,8.1c0,0,0.1,5.5-2.9,7.4c-1.6,1.1-3,2.5-4,4.1h0.9c1.7-1.2,3.6-2.3,5.6-3c2.1-0.9,2.4-3.7,2.4-3.7V1.6
	c-0.5,0.9-1.2,1.7-2,2.3L46.4,8.1z"/>
<path class="st0" d="M45.5,0L45.5,0C45.5,0,45.5,0,45.5,0z"/>
<path class="st0" d="M38.2,19.5c1.3-1.9,2.9-3.5,4.8-4.8c2.9-2,2.4-7.1,2.4-7.1V0.1c-0.8,0.9-1.6,1.7-2.4,2.5
	c-1.7,1.6-3,3.6-3.6,5.8L38.2,19.5L38.2,19.5z"/>
<g>
	<path class="st0" d="M11.9,37.6c-1.3-0.2-2.6-0.2-3.9,0v-0.5c1,0,1.3-0.5,1.3-1.5v-5.7H8.7c-1.4,0-1.9,0.3-1.9,1.2H6.3
		c0-0.9,0.2-1.2,0.2-1.9c0-0.1,0-0.2,0-0.3c0.4,0,0.5,0.5,1.5,0.5h3.9c1,0,1.1-0.5,1.5-0.5v0.3c0,0.7,0.2,1.1,0.2,1.9h-0.4
		c0-0.9-0.5-1.2-1.9-1.2h-0.6v5.7c0,1,0.2,1.5,1.3,1.5L11.9,37.6z"/>
	<path class="st0" d="M19.7,29.2c0.4,0,1.3,0.1,1.9,0.1s1.5-0.1,1.9-0.1v0.5c-0.9,0-1.1,0.5-1.1,1.4v2.7c0,2.2,1.1,3.2,2.6,3.2
		c1.7,0,2.5-1.2,2.5-3.4v-1.9c0-1.5-0.4-1.9-1.5-1.9v-0.5c0.3,0,1.1,0.1,1.6,0.1s1.3-0.1,1.6-0.1v0.5c-0.8,0-1.2,0.4-1.2,1.9v1.7
		c0,2.5-0.8,4.4-3.6,4.4c-2.1,0-3.4-1.3-3.4-3.6v-2.9c0-1.1-0.2-1.4-1.2-1.4L19.7,29.2z"/>
	<path class="st0" d="M36.8,31.2c0-1.1-0.2-1.4-1-1.5v-0.5c0.3,0,1.2,0.1,1.7,0.1s1.4-0.1,1.7-0.1v0.5c-0.8,0.1-1,0.3-1,1.5v4.5
		c0,1.1,0.5,1.2,1.5,1.2c2.2,0,2.5-0.9,2.8-1.8h0.4c0,0.5-0.5,1.7-0.5,2.6c-0.3-0.1-0.7-0.2-1-0.2c-0.4,0-1,0-2.1,0
		c-1.5,0-2.3,0-2.8,0.1s-0.6,0.1-0.6,0.1v-0.5c0.8-0.1,1-0.3,1-1.5L36.8,31.2z"/>
	<path class="st0" d="M54,31.2c0-1.1-0.7-1.6-1.9-1.6c-0.7-0.1-1.4,0.5-1.4,1.2c0,0,0,0,0,0c0,1.8,4.2,1.8,4.2,4.2
		c0,1.5-1.3,2.7-2.8,2.7c-0.1,0-0.2,0-0.3,0c-0.3,0-0.7,0-1-0.1c-0.3-0.1-0.5-0.1-0.8-0.1c-0.3,0-0.6,0.1-0.9,0.2
		c0.3-0.8,0.4-1.7,0.4-2.6h0.4v0.2c0,1,0.7,1.8,1.7,1.9c0.1,0,0.2,0,0.3,0c0.9,0,1.8-0.5,1.8-1.4c0-2.1-4.1-1.8-4.1-4.4
		c0-1.2,1-2.3,2.2-2.3c0.1,0,0.2,0,0.3,0c0.4,0,0.8,0,1.1,0.1c0.2,0.1,0.4,0.1,0.6,0.1c0.2,0,0.3,0,0.5-0.1c0.1-0.1,0.2-0.1,0.4-0.1
		c-0.1,0.7-0.2,1.4-0.2,2.1L54,31.2z"/>
	<path class="st0" d="M60.9,37.1c0.6,0,1.1-0.6,1.5-1.4c0.1-0.3,2.4-5.2,2.4-5.6c0-0.2-0.1-0.3-0.4-0.3v-0.5c1.4,0,1.3-0.4,2.2-0.4
		c-0.1,0.2-0.1,0.4-0.1,0.5c0,0.3,0.1,0.7,0.2,1l2.2,5.6c0.3,0.9,0.8,1.1,1.3,1.1v0.5c-0.6-0.1-1.2-0.1-1.8-0.1
		c-0.6,0-1.2,0-1.8,0.1v-0.5c0.8,0,1-0.3,1-0.7s-0.2-0.6-0.8-2.1c-0.4,0-1.2-0.1-2-0.1c-0.4,0-0.7,0-1.1,0.1
		c-0.5,1.3-0.8,1.6-0.8,2.1c0,0.4,0.3,0.7,1.1,0.7v0.5c-1-0.2-2.1-0.2-3.1,0L60.9,37.1z M65.2,30.4l-1.3,3.2h1.2c0,0,0.9,0,1.3,0
		L65.2,30.4z"/>
	<path class="st0" d="M14.4,46.9h1c0.5-0.1,1,0.3,1.1,0.9c0,0.1,0,0.2,0,0.2c0.1,0.5-0.4,1-0.9,1.1c-0.1,0-0.1,0-0.2,0h-0.6v1.6
		h-0.5V46.9z M14.9,48.7h0.6c0.3,0,0.6-0.2,0.6-0.7c0-0.3-0.2-0.6-0.5-0.7c0,0-0.1,0-0.1,0h-0.5V48.7z"/>
	<path class="st0" d="M18,46.9h0.5v2.6c0,0.5,0.2,0.8,0.6,0.8s0.6-0.3,0.6-0.8v-2.6h0.5v2.6c0.1,0.5-0.3,1.1-0.8,1.2
		c-0.1,0-0.2,0-0.3,0c-0.8,0-1.1-0.4-1.1-1.2L18,46.9z"/>
	<path class="st0" d="M21.8,46.9h1.1c0.5-0.1,0.9,0.2,1,0.7c0,0.1,0,0.2,0,0.3c0,0.4-0.2,0.7-0.5,0.8c0.4,0.1,0.7,0.5,0.7,0.9
		c0,0.8-0.4,1.1-1.2,1.1h-1L21.8,46.9z M22.2,48.5h0.5c0.3,0,0.6-0.2,0.6-0.5c0,0,0-0.1,0-0.1c0-0.4-0.2-0.6-0.6-0.6h-0.5V48.5z
		 M22.2,50.2h0.6c0.3,0,0.6-0.2,0.7-0.6c0,0,0-0.1,0-0.1c0-0.4-0.2-0.7-0.6-0.7c0,0-0.1,0-0.1,0h-0.5V50.2z"/>
	<path class="st0" d="M25.6,46.9H26v3.3h1.5v0.4h-2L25.6,46.9z"/>
	<path class="st0" d="M28.9,46.9h0.5v3.7h-0.5V46.9z"/>
	<path class="st0" d="M33.3,49.3c0,0.7-0.3,1.3-1.1,1.3c-1.1,0-1.2-1-1.2-1.9s0.2-1.9,1.2-1.9c0.8,0,1.1,0.4,1.1,1.2h-0.5
		c0-0.4-0.2-0.8-0.6-0.8c-0.6,0-0.7,0.7-0.7,1.6s0.1,1.6,0.7,1.6s0.6-0.5,0.7-1L33.3,49.3z"/>
	<path class="st0" d="M38.7,47.9c0-0.4-0.1-0.7-0.6-0.7c-0.3,0-0.6,0.2-0.6,0.5c0,0,0,0.1,0,0.1c0,1.1,1.8,0.4,1.8,1.8
		c0.1,0.5-0.3,1-0.9,1.1c-0.1,0-0.2,0-0.3,0c-0.9,0-1.1-0.5-1.1-1.2h0.5c0,0.4,0,0.9,0.7,0.9c0.3,0,0.6-0.3,0.7-0.6c0,0,0,0,0-0.1
		c0-1.1-1.8-0.5-1.8-1.8c0-0.6,0.4-1,1-1c0,0,0.1,0,0.1,0c0.5,0,1,0.3,1,0.9c0,0,0,0.1,0,0.1L38.7,47.9z"/>
	<path class="st0" d="M43.1,49.3c0,0.7-0.3,1.3-1.1,1.3c-1.1,0-1.2-1-1.2-1.9s0.2-1.9,1.2-1.9c0.8,0,1.1,0.4,1.1,1.2h-0.5
		c0-0.4-0.2-0.8-0.6-0.8c-0.6,0-0.7,0.7-0.7,1.6s0.1,1.6,0.7,1.6s0.6-0.5,0.7-1L43.1,49.3z"/>
	<path class="st0" d="M46.8,50.6h-0.5v-1.8h-1.3v1.8h-0.5v-3.7h0.5v1.5h1.3v-1.5h0.5V50.6z"/>
	<path class="st0" d="M50.8,48.8c0,0.9-0.2,1.9-1.2,1.9s-1.2-1-1.2-1.9s0.2-1.9,1.2-1.9S50.8,47.8,50.8,48.8z M48.9,48.8
		c0,0.9,0.1,1.6,0.7,1.6s0.7-0.7,0.7-1.6s-0.1-1.6-0.7-1.6S48.9,47.9,48.9,48.8z"/>
	<path class="st0" d="M54.8,48.8c0,0.9-0.2,1.9-1.2,1.9s-1.2-1-1.2-1.9s0.2-1.9,1.2-1.9S54.8,47.8,54.8,48.8z M52.8,48.8
		c0,0.9,0.1,1.6,0.7,1.6s0.7-0.7,0.7-1.6s-0.1-1.6-0.7-1.6S52.8,47.9,52.8,48.8z"/>
	<path class="st0" d="M56.4,46.9h0.5v3.3h1.5v0.4h-2L56.4,46.9z"/>
	<path class="st0" d="M61.3,47.9c0-0.4-0.2-0.7-0.6-0.7c-0.3,0-0.6,0.2-0.6,0.5c0,0,0,0.1,0,0.1c0,1.1,1.8,0.4,1.8,1.8
		c0.1,0.5-0.3,1-0.9,1.1c-0.1,0-0.2,0-0.3,0c-0.9,0-1.1-0.5-1.1-1.2h0.5c0,0.4,0,0.9,0.7,0.9c0.3,0,0.6-0.3,0.7-0.6c0,0,0,0,0-0.1
		c0-1.1-1.8-0.5-1.8-1.8c0-0.6,0.4-1,1-1c0,0,0.1,0,0.1,0c0.5-0.1,1,0.3,1,0.8c0,0.1,0,0.1,0,0.2L61.3,47.9z"/>
</g>
</svg>
